<svg xmlns="http://www.w3.org/2000/svg" width="156" height="159" viewBox="0 0 156 159">
  <g id="Group_18" data-name="Group 18" transform="translate(-853 -986)">
    <rect id="Rectangle_24" data-name="Rectangle 24" width="156" height="159" rx="78" transform="translate(853 986)" fill="#464646"/>
    <path id="arrow-right-solid" d="M27.386,41.855l3.191-3.191a3.436,3.436,0,0,1,4.873,0L63.4,66.6a3.436,3.436,0,0,1,0,4.873L35.451,99.417a3.436,3.436,0,0,1-4.873,0l-3.191-3.191a3.454,3.454,0,0,1,.058-4.931l17.323-16.5H3.45A3.442,3.442,0,0,1,0,71.34v-4.6a3.442,3.442,0,0,1,3.45-3.45H44.767l-17.323-16.5A3.429,3.429,0,0,1,27.386,41.855Z" transform="translate(899.008 997.556)" fill="#fff"/>
  </g>
</svg>
